# xmcd
#
# Track frame offsets: 
#        150
#        14277
#        28441
#        41009
#        54243
#        68429
#        84730
#        102857
#        116264
#        132217
#        148415
#        164031
#        179793
#        194731
#        208385
#        222728
#        236678
#        251189
#
# Disc length: 3529 seconds
#
# Revision: 2
# Processed by: cddbd v1.5.2PL0 Copyright (c) Steve Scherf et al.
# Submitted via: ExactAudioCopy v0.99pb3
#
DISCID=240dc712
DTITLE=Granata Rocco - Bella Romantica
DYEAR=1900
DGENRE=Schlager
TTITLE0=Nächtlich Am Busento
TTITLE1=Firenze Mia
TTITLE2=Mädchen Aus Tirol
TTITLE3=Roma (Du Bist Für Mich)
TTITLE4=Lass Uns Tanzen
TTITLE5=Lola Ich Seh' Nur Rosen
TTITLE6=Unsere Liebe Darf Nie Sterben
TTITLE7=Bella Ciao Bella Ciao
TTITLE8=Zeig Mir Die Tausend Farben
TTITLE9=Salsa
TTITLE10=Mit Dir Wird Alles Gut
TTITLE11=Tanz Nochmal Tahiti Girl
TTITLE12=Felicita Ist Die Sonne
TTITLE13=Tief In Mir
TTITLE14=Schenk Uns 100 Tage
TTITLE15=Malaika
TTITLE16=Hörst Du Mein Schweigen
TTITLE17=Ciao Bella, Du Warst Für Mich Das Leben
EXTD=
EXTT0=
EXTT1=
EXTT2=
EXTT3=
EXTT4=
EXTT5=
EXTT6=
EXTT7=
EXTT8=
EXTT9=
EXTT10=
EXTT11=
EXTT12=
EXTT13=
EXTT14=
EXTT15=
EXTT16=
EXTT17=
PLAYORDER=
